<svg width="170" height="174" viewBox="0 0 170 174" fill="none" xmlns="http://www.w3.org/2000/svg">
<rect width="170" height="174" rx="39" fill="#DA3131"/>
<path d="M52.7614 98V74.7273H62.375C64.1174 74.7273 65.6212 75.0417 66.8864 75.6705C68.1591 76.2917 69.1402 77.1856 69.8295 78.3523C70.5189 79.5114 70.8636 80.8864 70.8636 82.4773C70.8636 84.0909 70.5114 85.4621 69.8068 86.5909C69.1023 87.7121 68.1023 88.5682 66.8068 89.1591C65.5114 89.7424 63.9773 90.0341 62.2045 90.0341H56.125V85.6023H61.1591C62.0076 85.6023 62.7159 85.4924 63.2841 85.2727C63.8598 85.0455 64.2955 84.7045 64.5909 84.25C64.8864 83.7879 65.0341 83.197 65.0341 82.4773C65.0341 81.7576 64.8864 81.1629 64.5909 80.6932C64.2955 80.2159 63.8598 79.8598 63.2841 79.625C62.7083 79.3826 62 79.2614 61.1591 79.2614H58.3864V98H52.7614ZM65.8636 87.3636L71.6591 98H65.5227L59.8409 87.3636H65.8636ZM78.983 98H72.9375L80.7898 74.7273H88.2784L96.1307 98H90.0852L84.6193 80.5909H84.4375L78.983 98ZM78.1761 88.8409H90.8125V93.1136H78.1761V88.8409ZM98.6364 98V74.7273H108.25C109.992 74.7273 111.496 75.0417 112.761 75.6705C114.034 76.2917 115.015 77.1856 115.705 78.3523C116.394 79.5114 116.739 80.8864 116.739 82.4773C116.739 84.0909 116.386 85.4621 115.682 86.5909C114.977 87.7121 113.977 88.5682 112.682 89.1591C111.386 89.7424 109.852 90.0341 108.08 90.0341H102V85.6023H107.034C107.883 85.6023 108.591 85.4924 109.159 85.2727C109.735 85.0455 110.17 84.7045 110.466 84.25C110.761 83.7879 110.909 83.197 110.909 82.4773C110.909 81.7576 110.761 81.1629 110.466 80.6932C110.17 80.2159 109.735 79.8598 109.159 79.625C108.583 79.3826 107.875 79.2614 107.034 79.2614H104.261V98H98.6364ZM111.739 87.3636L117.534 98H111.398L105.716 87.3636H111.739Z" fill="white"/>
</svg>
